<svg width="24" height="25" viewBox="0 0 24 25" fill="none" xmlns="http://www.w3.org/2000/svg">
<path d="M5 22.2923H19C19.5523 22.2923 20 21.8515 20 21.3077V7.52308H15V2.60001H5C4.44771 2.60001 4 3.04083 4 3.58462V21.3077C4 21.8515 4.44771 22.2923 5 22.2923Z" stroke="#00DDF8" stroke-width="1.5" stroke-linecap="round" stroke-linejoin="round"/>
<path d="M15 2.60001L20 7.52308" stroke="#00DDF8" stroke-width="1.5" stroke-linecap="round" stroke-linejoin="round"/>
<path d="M9 10.9692C10.1046 10.9692 11 10.0876 11 8.99999C11 7.91242 10.1046 7.03076 9 7.03076C7.89543 7.03076 7 7.91242 7 8.99999C7 10.0876 7.89543 10.9692 9 10.9692Z" stroke="#00DDF8" stroke-width="1.5" stroke-linecap="round" stroke-linejoin="round"/>
<path d="M7.5 14.4154V18.8461H16.5V10.9692L11.7447 16.1385L7.5 14.4154Z" stroke="#00DDF8" stroke-width="1.5" stroke-linecap="round" stroke-linejoin="round"/>
</svg>
