<svg width="28" height="28" viewBox="0 0 28 28" fill="none" xmlns="http://www.w3.org/2000/svg">
<path d="M28 0H0V28H28V0Z" fill="white" fill-opacity="0.01"/>
<path d="M23.3334 15.75V3.49998C23.3334 2.85565 22.811 2.33331 22.1667 2.33331H5.83335C5.18902 2.33331 4.66669 2.85565 4.66669 3.49998V24.5C4.66669 25.1443 5.18902 25.6666 5.83335 25.6666H12.25" stroke="#FF0B0B" stroke-width="1.5" stroke-linecap="round" stroke-linejoin="round"/>
<path d="M9.91669 7H18.0834" stroke="#FF0B0B" stroke-width="1.5" stroke-linecap="round" stroke-linejoin="round"/>
<path d="M9.91669 11.6667H18.0834" stroke="#FF0B0B" stroke-width="1.5" stroke-linecap="round" stroke-linejoin="round"/>
<path d="M9.91669 16.3333H13.4167" stroke="#FF0B0B" stroke-width="1.5" stroke-linecap="round" stroke-linejoin="round"/>
<path d="M22.75 25.6667L20.729 23.6457L22.75 25.6667ZM20.729 23.6457C21.2569 23.1179 21.5833 22.3888 21.5833 21.5834C21.5833 19.9725 20.2775 18.6667 18.6667 18.6667C17.0558 18.6667 15.75 19.9725 15.75 21.5834C15.75 23.1942 17.0558 24.5 18.6667 24.5C19.4721 24.5 20.2012 24.1736 20.729 23.6457Z" stroke="#FF0B0B" stroke-width="1.5" stroke-linecap="round" stroke-linejoin="round"/>
</svg>
