<svg width="28" height="28" viewBox="0 0 28 28" fill="none" xmlns="http://www.w3.org/2000/svg">
<path d="M28 0H0V28H28V0Z" fill="white" fill-opacity="0.01"/>
<path d="M23.3334 15.7502V3.50016C23.3334 2.85583 22.811 2.3335 22.1667 2.3335H5.83335C5.18902 2.3335 4.66669 2.85583 4.66669 3.50016V24.5002C4.66669 25.1445 5.18902 25.6668 5.83335 25.6668H12.25" stroke="white" stroke-width="1.5" stroke-linecap="round" stroke-linejoin="round"/>
<path d="M9.91669 7H18.0834" stroke="white" stroke-width="1.5" stroke-linecap="round" stroke-linejoin="round"/>
<path d="M9.91669 11.6665H18.0834" stroke="white" stroke-width="1.5" stroke-linecap="round" stroke-linejoin="round"/>
<path d="M9.91669 16.3335H13.4167" stroke="white" stroke-width="1.5" stroke-linecap="round" stroke-linejoin="round"/>
<path d="M22.75 25.6665L20.729 23.6455L22.75 25.6665ZM20.729 23.6455C21.2569 23.1177 21.5833 22.3886 21.5833 21.5832C21.5833 19.9724 20.2775 18.6665 18.6667 18.6665C17.0558 18.6665 15.75 19.9724 15.75 21.5832C15.75 23.194 17.0558 24.4998 18.6667 24.4998C19.4721 24.4998 20.2012 24.1734 20.729 23.6455Z" stroke="white" stroke-width="1.5" stroke-linecap="round" stroke-linejoin="round"/>
</svg>
