<svg width="56" height="56" viewBox="0 0 56 56" fill="none" xmlns="http://www.w3.org/2000/svg">
<rect width="56" height="56" rx="28" fill="white"/>
<g clip-path="url(#clip0_1_363)">
<path d="M36.5678 40.5202C36.8079 40.5202 37.0448 40.6115 37.225 40.7856C38.3769 41.8979 40.0573 42.2683 41.551 41.8047C40.5897 39.802 40.4565 37.5075 41.2015 35.383C42.126 32.7398 42.3577 30.0905 41.3055 27.4334C40.3811 25.0992 38.5972 23.1599 36.3395 22.0541C36.4784 22.7946 36.5484 23.549 36.5484 24.3115C36.5485 27.5478 35.304 30.5916 33.0444 32.8823C30.7846 35.1733 27.7554 36.4615 24.5148 36.5097C23.9127 36.5191 23.3133 36.4837 22.7208 36.4056C24.5017 39.5274 27.8606 41.5606 31.5516 41.6153C33.1663 41.6403 34.7166 41.302 36.1604 40.6125C36.2904 40.5503 36.4297 40.5202 36.5678 40.5202Z" fill="#3E4954"/>
<path d="M24.541 14.0024C18.7922 13.8882 14.0135 18.5388 13.9996 24.2863C13.9962 25.6906 14.2703 27.052 14.8144 28.3331C14.8223 28.3517 14.8296 28.3706 14.8363 28.3897C15.5813 30.5142 15.4481 32.8086 14.4867 34.8114C15.9806 35.2748 17.6607 34.9046 18.8128 33.7922C19.0966 33.518 19.5212 33.449 19.8773 33.6192C21.3209 34.3087 22.8714 34.648 24.486 34.6221C30.1898 34.5374 34.6576 30.0085 34.6576 24.3117C34.6576 18.7392 30.1193 14.1145 24.541 14.0024ZM18.819 25.8517C17.9931 25.8517 17.3235 25.1832 17.3235 24.3587C17.3235 23.5341 17.9931 22.8657 18.819 22.8657C19.6449 22.8657 20.3145 23.5341 20.3145 24.3587C20.3144 25.1832 19.6449 25.8517 18.819 25.8517ZM24.3286 25.8517C23.5027 25.8517 22.8331 25.1832 22.8331 24.3587C22.8331 23.5341 23.5027 22.8657 24.3286 22.8657C25.1546 22.8657 25.8241 23.5341 25.8241 24.3587C25.8241 25.1832 25.1546 25.8517 24.3286 25.8517ZM29.8383 25.8517C29.0124 25.8517 28.3428 25.1832 28.3428 24.3587C28.3428 23.5341 29.0124 22.8657 29.8383 22.8657C30.6642 22.8657 31.3338 23.5341 31.3338 24.3587C31.3338 25.1832 30.6642 25.8517 29.8383 25.8517Z" fill="#3E4954"/>
</g>
<defs>
<clipPath id="clip0_1_363">
<rect width="28" height="28" fill="white" transform="translate(14 14)"/>
</clipPath>
</defs>
</svg>
